<svg id="Layer_1" data-name="Layer 1" xmlns="http://www.w3.org/2000/svg" viewBox="0 0 455 178"><defs><style>.cls-1{font-size:22.2437px;font-family:ArchivoBlack-Regular, Archivo Black;}.cls-1,.cls-12,.cls-6{fill:#1b1b1b;}.cls-2{letter-spacing:-0.018em;}.cls-3{letter-spacing:-0.043em;}.cls-4{letter-spacing:-0.085em;}.cls-5{letter-spacing:0em;}.cls-6{font-size:14.1248px;letter-spacing:0.3em;}.cls-12,.cls-6,.cls-9{font-family:Antonio-Regular, Antonio Regular;}.cls-7{letter-spacing:0.259em;}.cls-8{letter-spacing:0.273em;}.cls-9{font-size:13.2089px;letter-spacing:0.2em;}.cls-13,.cls-9{fill:#ff4132;}.cls-10{letter-spacing:0.159em;}.cls-11{letter-spacing:0.116em;}.cls-12{font-size:10.2007px;letter-spacing:0.2em;}.cls-13{font-size:44.4874px;font-family:Antonio-Bold, Antonio Bold;font-weight:700;}.cls-14{fill:none;}</style></defs><text class="cls-1" transform="translate(250.0643 57.1417)">BL<tspan class="cls-2" x="32.1421" y="0">A</tspan><tspan x="49.0474" y="0">CK FRI</tspan><tspan class="cls-3" x="133.083" y="0">D</tspan><tspan class="cls-4" x="149.4321" y="0">A</tspan><tspan class="cls-5" x="164.8472" y="0">Y</tspan></text><text class="cls-6" transform="translate(270.2343 124.5753)">UP<tspan class="cls-7" x="25.1279" y="0"> </tspan><tspan class="cls-8" x="31.7808" y="0">T</tspan><tspan x="42.6567" y="0">O 50% OFF</tspan></text><text class="cls-9" transform="translate(267.1244 31.9517)">LIMITED<tspan class="cls-10" x="63.521" y="0"> </tspan><tspan x="68.4214" y="0">TIME ON</tspan><tspan class="cls-11" x="134.3462" y="0">L</tspan><tspan x="142.1128" y="0">Y</tspan></text><text class="cls-12" transform="translate(310.0111 152.605)">SHOP NOW</text><text class="cls-13" transform="translate(230.3021 102.5128)">SUPER SALE</text><path class="cls-14" d="M49.8187,0a12.7225,12.7225,0,0,0-1.5806-.3022H46.359A4.1373,4.1373,0,0,0,45.29,0Z" transform="translate(0.184 0.3022)"/><path class="cls-14" d="M130.5641,0h58.78c-.021-.1007-.044-.2016-.0644-.3022h-59C130.3748-.2012,130.47-.1019,130.5641,0Z" transform="translate(0.184 0.3022)"/><path class="cls-14" d="M259.3,0H454.816V-.3022h-195.45C259.3454-.2016,259.3216-.1007,259.3,0Z" transform="translate(0.184 0.3022)"/><path class="cls-14" d="M50.115,0H68.2485c.0935-.1019.1892-.2012.2836-.3022H50.319Z" transform="translate(0.184 0.3022)"/><path class="cls-14" d="M156.7727,177.4469c-.0306.0838-.0651.1671-.0961.2509H454.816v-.2509Z" transform="translate(0.184 0.3022)"/><path class="cls-14" d="M0,8.5873V0H42c.0344-.1011.074-.2015.1123-.3022H-.184V8.7331C-.1234,8.6825-.0617,8.6352,0,8.5873Z" transform="translate(0.184 0.3022)"/><path class="cls-14" d="M80.3829,177.4469H0V157.2305c-.0611-.054-.1229-.1047-.184-.1591v20.6264h80.66C80.4461,177.614,80.4127,177.5307,80.3829,177.4469Z" transform="translate(0.184 0.3022)"/><path class="cls-14" d="M0,19.6964l-.184.1487V53.7386c.0607-.0323.1232-.061.184-.0929Z" transform="translate(0.184 0.3022)"/><path class="cls-14" d="M-.184,16.479c.0614.0679.1221.1382.184.2024v-6.673c-.063.0343-.1235.0714-.184.1086Z" transform="translate(0.184 0.3022)"/></svg>