<svg id="Layer_1" data-name="Layer 1" xmlns="http://www.w3.org/2000/svg" viewBox="0 0 750 100"><rect width="750" height="100"/><path d="M566.4,31H674.6a9.4,9.4,0,0,1,9.4,9.4V59.6a9.4,9.4,0,0,1-9.4,9.4H566.4a9.4,9.4,0,0,1-9.4-9.4V40.4A9.4,9.4,0,0,1,566.4,31Z" style="fill:#fc0000"/><path d="M68.5127,40.874A17.88454,17.88454,0,0,0,57.20654,36.544a12.51115,12.51115,0,0,0,0,25.01757A17.8818,17.8818,0,0,0,68.5127,57.23145l.24072.24121v5.53222a19.2921,19.2921,0,0,1-11.54688,3.6084,17.56217,17.56217,0,1,1,0-35.12109,19.29539,19.29539,0,0,1,11.54688,3.6084V40.6333Z" style="fill:#fff"/><path d="M100.50293,53.38281A13.47338,13.47338,0,1,1,87.03174,40.15234,13.24646,13.24646,0,0,1,100.50293,53.38281Zm-21.40967,0a7.942,7.942,0,1,0,7.93848-8.17871A8.06215,8.06215,0,0,0,79.09326,53.38281Z" style="fill:#fff"/><path d="M110.84424,40.874l.481.24024,12.74951,17.0791V41.11426l.24072-.24024h4.33008l.24023.24024V65.65137l-.24023.24023H123.834l-.48095-.24023L110.60352,48.57178V65.65137l-.24024.24023H106.0332l-.24072-.24023V41.11426l.24072-.24024Z" style="fill:#fff"/><path d="M155.585,40.874l.24024.24024v4.33008l-.24024.24072h-8.41943V65.65137l-.24073.24023h-4.33007l-.24024-.24023V45.68506h-8.41943l-.24072-.24072V41.11426l.24072-.24024Z" style="fill:#fff"/><path d="M168.57275,40.874l.24073.24024L178.917,65.65137l-.24072.24023h-5.05176l-.24072-.24023-1.68359-4.33008H161.11572l-1.68408,4.33008-.24023.24023h-5.05176l-.24072-.24023,10.10351-24.53711.24072-.24024ZM163.04,56.50977h6.73584l-3.36817-8.90039Z" style="fill:#fff"/><path d="M202.72949,48.57178c-3.12695-2.40576-5.53271-3.36768-8.90039-3.36768a8.18235,8.18235,0,0,0,0,16.35742c3.36768,0,5.77344-.96191,8.90039-3.36816l.24072.24121v5.292a15.89937,15.89937,0,0,1-9.14111,2.88672,13.23262,13.23262,0,1,1,0-26.46094,15.89586,15.89586,0,0,1,9.14111,2.88672v5.292Z" style="fill:#fff"/><path d="M228.70752,40.874l.24023.24024v4.33008l-.24023.24072h-8.41943V65.65137l-.24073.24023h-4.33007l-.24024-.24023V45.68506h-8.41943l-.24073-.24072V41.11426l.24073-.24024Z" style="fill:#fff"/><path d="M267.19189,32.21387l.24073.24072v4.33008l-.24073.24023H251.55615v7.93848h11.78711l.24024.24072v4.32959l-.24024.24072H251.55615v15.877l-.24072.24023h-4.33008l-.24023-.24023V32.45459l.24023-.24072Z" style="fill:#fff"/><path d="M278.01514,40.874c5.77343,0,10.10351,3.127,10.10351,8.17871,0,3.127-1.68408,5.53321-4.811,6.97657l7.21631,9.62207-.24024.24023h-5.77344l-.24072-.24023-6.73535-8.41992h-2.40576v8.41992l-.24024.24023h-4.33007l-.24073-.24023V41.11426l.24073-.24024ZM275.12842,52.4209h2.88672c2.88672,0,4.5708-.96289,4.5708-3.36817s-1.68408-3.36767-4.5708-3.36767h-2.88672Z" style="fill:#fff"/><path d="M310.00684,40.874l.24023.24024v4.33008l-.24023.24072h-10.8252v5.05176h7.93848l.24072.24023v4.33057l-.24072.24023h-7.93848v5.53223H311.4502l.24023.24121v4.33008l-.24023.24023H294.61133l-.24072-.24023V41.11426l.24072-.24024Z" style="fill:#fff"/><path d="M332.6167,40.874l.24072.24024v4.33008l-.24072.24072H321.7915v5.05176H329.73l.24072.24023v4.33057l-.24072.24023H321.7915v5.53223h12.26856l.24023.24121v4.33008l-.24023.24023H317.22119l-.24072-.24023V41.11426l.24072-.24024Z" style="fill:#fff"/><path d="M364.36572,39.18994c-1.44336-1.68359-2.40576-2.646-4.33008-2.646a3.35326,3.35326,0,0,0-3.36767,3.60839c0,4.811,14.67383,4.57032,14.67383,15.63575a10.78029,10.78029,0,0,1-10.8252,10.82519,10.4103,10.4103,0,0,1-10.103-6.97656l3.60791-2.88574h.48145c1.44336,3.127,3.127,4.81054,6.01367,4.81054,3.12744,0,5.29248-2.40527,5.29248-5.77343,0-6.73536-14.67383-6.2544-14.67383-15.63575a8.70964,8.70964,0,0,1,8.90039-8.66015,9.62071,9.62071,0,0,1,8.41944,5.05176l-3.6084,2.646Z" style="fill:#fff"/><path d="M392.26758,40.874l.24121.24024v4.33008l-.24121.24072H381.44336v5.05176h7.9375l.24121.24023v4.33057l-.24121.24023h-7.9375v5.53223h12.26758l.24121.24121v4.33008l-.24121.24023H376.87305l-.24121-.24023V41.11426l.24121-.24024Z" style="fill:#fff"/><path d="M406.93848,40.874c5.77343,0,10.10351,3.127,10.10351,8.17871,0,3.127-1.68359,5.53321-4.81152,6.97657l7.2168,9.62207-.24024.24023h-5.77344l-.24023-.24023L406.457,57.23145h-2.40527v8.41992l-.24024.24023h-4.33007l-.24024-.24023V41.11426l.24024-.24024ZM404.05176,52.4209h2.88672c2.88672,0,4.57031-.96289,4.57031-3.36817s-1.68359-3.36767-4.57031-3.36767h-2.88672Z" style="fill:#fff"/><path d="M424.499,40.874l.24024.24024L431.95605,58.915l7.2168-17.80078.24024-.24024h4.81054l.24121.24024L434.36133,65.65137l-.24024.24023H429.791l-.24122-.24023L419.44727,41.11426l.24023-.24024Z" style="fill:#fff"/><path d="M452.88086,40.874l.24023.24024V65.65137l-.24023.24023h-4.33008l-.24023-.24023V41.11426l.24023-.24024Z" style="fill:#fff"/><path d="M480.78418,48.57178c-3.12695-2.40576-5.53223-3.36768-8.90039-3.36768a8.18234,8.18234,0,0,0,0,16.35742c3.36816,0,5.77344-.96191,8.90039-3.36816l.24023.24121v5.292a15.89659,15.89659,0,0,1-9.14062,2.88672,13.23261,13.23261,0,1,1,0-26.46094,15.89308,15.89308,0,0,1,9.14062,2.88672v5.292Z" style="fill:#fff"/><path d="M502.43164,40.874l.24024.24024v4.33008l-.24024.24072H491.60645v5.05176h7.93847l.24024.24023v4.33057l-.24024.24023h-7.93847v5.53223H503.875l.24023.24121v4.33008l-.24023.24023H487.03613l-.24023-.24023V41.11426l.24023-.24024Z" style="fill:#fff"/><path d="M568.585,42.856l.082.08154V55.07813h6.64063l.08105.10156V57.0332l-.08105.082h-8.59668l-.08106-.082V42.9375l.08106-.08154Z" style="fill:#fff"/><path d="M586.18555,56.09668a7.2996,7.2996,0,0,1-3.8711,1.32422,5.235,5.235,0,0,1-5.2959-5.17481,4.79413,4.79413,0,0,1,4.88868-5.01074c2.54687,0,4.27832,2.24072,4.27832,4.99121a1.14274,1.14274,0,0,1-.10254.50879l-.20313.10254h-6.7832a3.13533,3.13533,0,0,0,3.21777,2.64746,5.51166,5.51166,0,0,0,3.76856-1.62988l.10254.10254ZM584.14844,51.208a2.30381,2.30381,0,0,0-2.24121-2.03711,2.73758,2.73758,0,0,0-2.7295,2.03711Z" style="fill:#fff"/><path d="M589.24121,47.84668a5.48919,5.48919,0,0,1,2.5459-.61133c2.24023,0,3.76855,1.32422,3.76855,4.07422v5.7041l-.10156.10156h-1.834l-.10157-.10156V56.708a4.3829,4.3829,0,0,1-2.34277.71289c-1.73144,0-3.36133-.81543-3.36133-2.75,0-2.85254,2.9541-3.56543,5.7041-3.76856a1.6349,1.6349,0,0,0-1.833-1.73144,5.47517,5.47517,0,0,0-3.25977,1.12012l-.10156-.10157Zm4.27734,4.78711c-2.13867.10156-3.56445.81543-3.56445,1.833,0,.71289.50879,1.01855,1.42578,1.01855a4.28814,4.28814,0,0,0,2.13867-.61035Z" style="fill:#fff"/><path d="M600.5459,47.541l.10254.102v.30566a5.28612,5.28612,0,0,1,2.5459-.71338,3.98981,3.98981,0,0,1,1.833.40772l.10254,2.03711-.10254.10156a2.81584,2.81584,0,0,0-1.833-.61084,3.43933,3.43933,0,0,0-2.5459,1.01855v6.82422l-.10254.10156h-1.833l-.10156-.10156v-9.3706l.10156-.102Z" style="fill:#fff"/><path d="M609.10156,47.541l.10254.102v.30566a5.28615,5.28615,0,0,1,2.5459-.71338c3.05566,0,4.583,1.73145,4.583,4.48145v5.29687l-.10156.10156h-1.833l-.10156-.10156V51.81836A2.33813,2.33813,0,0,0,611.75,49.1709a3.43934,3.43934,0,0,0-2.5459,1.01855v6.82422l-.10254.10156h-1.833l-.10156-.10156v-9.3706l.10156-.102Z" style="fill:#fff"/><path d="M626.51855,42.856l.20411.10156,5.09277,6.21338,5.0918-6.21338.2041-.10156h1.73144l.10157.10156V57.01367l-.10157.10156h-1.833l-.10254-.10156v-11.102L631.917,52.02246h-.2041l-4.99023-6.11084v11.102l-.10254.10156h-1.833l-.10156-.10156V42.95752l.10156-.10156Z" style="fill:#fff"/><path d="M651.77832,52.32813a5.09278,5.09278,0,1,1-5.09277-5.09278A5.04378,5.04378,0,0,1,651.77832,52.32813Zm-8.04687,0a2.96018,2.96018,0,1,0,2.9541-3.15723A2.94623,2.94623,0,0,0,643.73145,52.32813Z" style="fill:#fff"/><path d="M656.36133,47.541l.10254.102v.30566a5.28612,5.28612,0,0,1,2.5459-.71338,3.98981,3.98981,0,0,1,1.833.40772l.10254,2.03711-.10254.10156a2.81584,2.81584,0,0,0-1.833-.61084,3.43933,3.43933,0,0,0-2.5459,1.01855v6.82422l-.10254.10156h-1.833l-.10156-.10156v-9.3706l.10156-.102Z" style="fill:#fff"/><path d="M671.53809,56.09668a7.2996,7.2996,0,0,1-3.8711,1.32422,5.235,5.235,0,0,1-5.2959-5.17481,4.79413,4.79413,0,0,1,4.88868-5.01074c2.54687,0,4.27832,2.24072,4.27832,4.99121a1.14274,1.14274,0,0,1-.10254.50879l-.20313.10254h-6.7832a3.13533,3.13533,0,0,0,3.21777,2.64746,5.51166,5.51166,0,0,0,3.76856-1.62988l.10254.10254ZM669.501,51.208a2.30381,2.30381,0,0,0-2.24121-2.03711,2.73757,2.73757,0,0,0-2.7295,2.03711Z" style="fill:#fff"/></svg>