<?xml version="1.0" encoding="utf-8"?>
<!-- Generator: Adobe Illustrator 24.2.3, SVG Export Plug-In . SVG Version: 6.00 Build 0)  -->
<svg version="1.1" id="Layer_1" xmlns="http://www.w3.org/2000/svg" xmlns:xlink="http://www.w3.org/1999/xlink" x="0px" y="0px"
	 viewBox="0 0 1214 181.1" style="enable-background:new 0 0 1214 181.1;" xml:space="preserve">
<style type="text/css">
	.st0{fill:url(#SVGID_1_);}
	.st1{fill:url(#SVGID_2_);}
	.st2{fill:url(#SVGID_3_);}
	.st3{fill:url(#SVGID_4_);}
	.st4{fill:none;}
</style>
<g>
	
		<image style="overflow:visible;opacity:0.75;" width="1244" height="201" xlink:href="C2A383DD.png"  transform="matrix(1 0 0 1 -8 -8.9091)">
	</image>
	<g>
		<g>
			<linearGradient id="SVGID_1_" gradientUnits="userSpaceOnUse" x1="0" y1="91.4635" x2="1214" y2="91.4635">
				<stop  offset="0" style="stop-color:#C2000A"/>
				<stop  offset="0.468" style="stop-color:#E60000"/>
				<stop  offset="0.7796" style="stop-color:#DC0002"/>
				<stop  offset="1" style="stop-color:#D20005"/>
			</linearGradient>
			<path class="st0" d="M1.5,16.1L0,144.3c0,0,7.5,14.5,65.9,8.4c0,0,202.3-29,343.2-17.6c0,0,109.4,6.1,190.3,19.8
				c0,0,128.9,19.8,305.8,13c0,0,205.3-6.1,308.7-38.2c0,0-54-4.6-145.4-37.4c0,0,34.5-16,86.9-77.1c0,0-55.5,15.3-122.9,22.1
				c0,0-109.4,16-227.8,13c0,0-88.4-2.3-221.8-18.3c0,0-80.9-11.5-235.3-18.3c0,0-86.9-1.5-139.4,3.1C208.3,16.8,16.5,33.6,1.5,16.1
				z"/>
			<linearGradient id="SVGID_2_" gradientUnits="userSpaceOnUse" x1="1.4962" y1="12.4574" x2="243.9603" y2="12.4574">
				<stop  offset="0" style="stop-color:#730007"/>
				<stop  offset="1" style="stop-color:#AE000C"/>
			</linearGradient>
			<path class="st1" d="M235,16.6l9-15.3c0,0-181.3-7.6-241.3,13C2.7,14.4-28.8,36.5,235,16.6z"/>
			<linearGradient id="SVGID_3_" gradientUnits="userSpaceOnUse" x1="1.6855" y1="19.7749" x2="1.6855" y2="19.7749">
				<stop  offset="0" style="stop-color:#730007"/>
				<stop  offset="1" style="stop-color:#AE000C"/>
			</linearGradient>
			<path class="st2" d="M1.7,19.8"/>
			<linearGradient id="SVGID_4_" gradientUnits="userSpaceOnUse" x1="1.4956" y1="20.3398" x2="342.6492" y2="20.3398">
				<stop  offset="0" style="stop-color:#730007"/>
				<stop  offset="0.1321" style="stop-color:#933231"/>
				<stop  offset="0.432" style="stop-color:#E2AE99"/>
				<stop  offset="0.5222" style="stop-color:#FBD5B9"/>
				<stop  offset="0.7442" style="stop-color:#D56B63"/>
				<stop  offset="0.9197" style="stop-color:#B91E25"/>
				<stop  offset="1" style="stop-color:#AE000C"/>
			</linearGradient>
			<path class="st3" d="M1.5,16.9c0,0,14,7.7,69.7,6c0,0,74.8-1.4,95-3.7l85.4-5.2c0,0,87.7-1.4,91-0.6l-92.2,5.7l-78.1,4.6
				c0,0-63.5,4-96.1,3.7c0,0-56.8,0.6-74.7-6.9V16.9z"/>
		</g>
	</g>
</g>
<g>
	
		<image style="overflow:visible;opacity:0.75;" width="1186" height="152" xlink:href="C2A383DF.png"  transform="matrix(1 0 0 1 21 29.0909)">
	</image>
	<g>
		<path id="SVGID_x5F_5_x5F_" class="st4" d="M29.4,116.2c59.4,9.5,119.6-0.6,179.2-8.5c108.5-14.4,218.6-9.9,327.6-0.4
			c82.9,7.2,165.9,14.4,248.8,21.7c-5.9-0.4-11.7-0.8-17.6-1.2c138.7,13.3,278.8,11.8,417.2-4.4"/>
		<text>		<textPath  xlink:href="#SVGID_x5F_5_x5F_" startOffset="0.3608%">
<tspan  style="fill:#FFFFFF; font-family:'P22UndergroundMedium'; font-size:72px;">Featured Coupons and Offers</tspan>		</textPath>
</text>
	</g>
</g>
</svg>
