<svg id="Layer_1" data-name="Layer 1" xmlns="http://www.w3.org/2000/svg" viewBox="0 0 649.20001 94.7"><g style="isolation:isolate"><path d="M59.67383,35.86035a27.05512,27.05512,0,0,0-17.10449-6.55078,18.92739,18.92739,0,0,0,0,37.84766,27.04971,27.04971,0,0,0,17.10449-6.55078l.36377.36425v8.37012a29.18969,29.18969,0,0,1-17.46826,5.459,26.56886,26.56886,0,1,1,0-53.13281A29.1897,29.1897,0,0,1,60.0376,27.126v8.37011Z" style="fill:red"/><path d="M120.45166,48.2334A26.93267,26.93267,0,1,1,93.52148,21.667,26.7934,26.7934,0,0,1,120.45166,48.2334Zm-45.49023,0A18.56355,18.56355,0,1,0,93.52148,29.30957,18.71758,18.71758,0,0,0,74.96143,48.2334Z" style="fill:red"/><path d="M129.55371,22.75879l.36426.36426L145.20264,63.1543,160.4873,23.12305l.36377-.36426h7.27832l.36426.36426L148.8418,73.34375l-.36426.36426h-6.55029l-.36377-.36426-19.65186-50.2207.36377-.36426Z" style="fill:red"/><path d="M181.96094,22.75879l.36377.36426v50.2207l-.36377.36426h-6.55078l-.36377-.36426V23.12305l.36377-.36426Z" style="fill:red"/><path d="M211.439,22.75879c15.64844,0,26.93018,11.28125,26.93018,25.47461S227.0874,73.708,211.439,73.708H194.33447l-.36377-.36426V23.12305l.36377-.36426ZM201.249,66.42969H211.439c10.91749,0,18.56006-8.00684,18.56006-18.19629S222.35645,30.03711,211.439,30.03711H201.249Z" style="fill:red"/><path d="M274.03711,22.75879v50.585l-.36377.36426h-6.55078l-.36377-.36426V28.582l.36377-.72851,6.55078-5.459Z" style="fill:red"/><path d="M298.05713,21.667c8.37012,0,16.74023,6.041,16.74023,20.74414,0,12.73731-9.46191,26.56543-16.74023,31.29688h-8.37061l-.36377-.36426c5.82276-5.09473,13.10108-13.10059,15.94-21.4707a13.85481,13.85481,0,0,1-7.20557,1.81933,15.6948,15.6948,0,0,1-16.0127-16.01269A15.6948,15.6948,0,0,1,298.05713,21.667Zm9.09766,21.18067v-.43653c0-9.82617-4.3667-13.46582-9.09766-13.46582-5.459,0-8.37061,4.00293-8.37061,8.73438,0,5.09472,3.27539,8.73437,8.37061,8.73437C302.13281,46.41406,304.31641,45.61328,307.15479,42.84766Z" style="fill:red"/><path d="M329.71875,47.72363a3.542,3.542,0,0,1-3.49316,3.49414,3.49365,3.49365,0,1,1,0-6.9873A3.54183,3.54183,0,0,1,329.71875,47.72363Zm0,22.92774a3.49341,3.49341,0,0,1-6.98682,0,3.44919,3.44919,0,0,1,3.49366-3.49414A3.542,3.542,0,0,1,329.71875,70.65137Z" style="fill:red"/></g><g style="isolation:isolate"><path d="M379.68555,33.5a8.94419,8.94419,0,1,1-8.94336-8.82227A8.86641,8.86641,0,0,1,379.68555,33.5Zm-14.69532,0a5.75322,5.75322,0,1,0,5.752-5.874A5.77726,5.77726,0,0,0,364.99023,33.5Z" style="fill:red"/><path d="M390.53418,29.39063l.12109.12109v2.58594l-.12109.12109H385.2168V34.249H389.084l.1211.12012v2.36914l-.1211.1211H385.2168v4.97851l-.1211.12109h-2.58593l-.1211-.12109V29.51172l.1211-.12109Zm10.58691,0,.1211.12109v2.58594l-.1211.12109h-5.31738V34.249h3.86719l.12012.12012v2.36914l-.12012.1211h-3.86719v4.97851l-.12109.12109h-2.58594l-.12109-.12109V29.51172l.12109-.12109Z" style="fill:red"/><path d="M411.72852,29.39063l.12109.12109v2.58594l-.12109.12109h-5.31739V34.249h3.86719l.12109.12012v2.36914l-.12109.1211h-3.86719v2.27148h6.043l.12012.12109v2.58594l-.12012.12109h-8.75l-.12012-.12109V29.51172l.12012-.12109Z" style="fill:red"/><path d="M419.002,29.39063c2.998,0,5.22071,1.57128,5.22071,4.20507a3.84879,3.84879,0,0,1-2.15039,3.50489l3.5039,4.7373-.12012.12109h-3.21484l-.12109-.12109-3.21387-4.03613h-.94336v4.03613l-.12109.12109h-2.58594l-.12109-.12109V29.51172l.12109-.12109Zm-1.03906,5.80078h1.08789c1.30469,0,1.98242-.43555,1.98242-1.498,0-1.04-.67773-1.47461-1.98242-1.47461h-1.08789Z" style="fill:red"/><path d="M430.11914,29.39063l.12012.12109V41.83789l-.12012.12109h-2.58691l-.12012-.12109V29.51172l.12012-.12109Z" style="fill:red"/><path d="M436.25684,29.39063l.24121.12109,5.874,7.73437V29.51172l.12012-.12109h2.58691l.12012.12109V41.83789l-.12012.12109h-2.75586l-.24121-.12109-5.84961-7.73437v7.73437l-.12109.12109h-2.58594l-.12109-.12109V29.51172l.12109-.12109Z" style="fill:red"/><path d="M459.24023,33.5a6.78488,6.78488,0,0,0-4.4707-1.52344,3.756,3.756,0,0,0-3.81933,3.69824,3.68212,3.68212,0,0,0,3.81933,3.69825,4.14008,4.14008,0,0,0,2.00586-.38672V37.19727h-1.88574l-.12012-.1211V34.708l.12012-.1211h4.59277l.1211.1211v6.0664a7.56144,7.56144,0,0,1-4.834,1.54688,6.6559,6.6559,0,1,1,0-13.293,8.46228,8.46228,0,0,1,4.5918,1.13574v3.21485Z" style="fill:red"/><path d="M475.14063,29.39063l.12109.12109,4.97851,12.32617-.12011.12109h-2.85254l-.1211-.12109-.77343-2.1748h-4.834l-.77343,2.1748-.12012.12109H467.793l-.12109-.12109,4.97949-12.32617.12109-.12109Zm-2.63477,7.6621h2.90039L473.957,33.18555Z" style="fill:red"/><path d="M495.10254,28.85938a2.61072,2.61072,0,0,0-2.05469-1.2334,1.41557,1.41557,0,0,0-1.47363,1.54687c0,2.22363,7.27441,2.15137,7.27441,7.71a5.62852,5.62852,0,0,1-10.876,1.83789l2.22363-1.62011h.24121c.67676,1.5957,1.61914,2.27246,2.85254,2.27246a2.32916,2.32916,0,0,0,2.417-2.49024c0-3.18945-7.27539-2.99609-7.27539-7.71a4.48477,4.48477,0,0,1,4.61621-4.49512,5.13612,5.13612,0,0,1,4.44727,2.58594l-2.15137,1.59571Z" style="fill:red"/><path d="M507.52441,29.39063l.12012.12109L512.624,41.83789l-.12109.12109h-2.85156l-.1211-.12109-.77343-2.1748h-4.834l-.77344,2.1748-.12109.12109h-2.85156l-.1211-.12109,4.9795-12.32617.12011-.12109Zm-2.63476,7.6621H507.79l-1.4502-3.86718Z" style="fill:red"/><path d="M522.60449,29.39063l.12012.12109v2.58594l-.12012.12109h-5.31738V34.249h3.86719l.12109.12012v2.36914l-.12109.1211h-3.86719v4.97851l-.12109.12109h-2.58594l-.1211-.12109V29.51172l.1211-.12109Z" style="fill:red"/><path d="M533.18945,29.39063l.1211.12109v2.58594l-.1211.12109h-5.31738V34.249h3.86719l.12012.12012v2.36914l-.12012.1211h-3.86719v2.27148h6.042l.1211.12109v2.58594l-.1211.12109h-8.749l-.12109-.12109V29.51172l.12109-.12109Z" style="fill:red"/><path d="M540.46289,29.39063c2.99609,0,5.2207,1.57128,5.2207,4.20507a3.8497,3.8497,0,0,1-2.15136,3.50489l3.50488,4.7373-.12109.12109h-3.21485l-.12109-.12109-3.21485-4.03613h-.94238v4.03613l-.12012.12109h-2.58691l-.12012-.12109V29.51172l.12012-.12109Zm-1.04,5.80078h1.08789c1.30567,0,1.98145-.43555,1.98145-1.498,0-1.04-.67578-1.47461-1.98145-1.47461h-1.08789Z" style="fill:red"/><path d="M561.89844,28.85938a2.61073,2.61073,0,0,0-2.05469-1.2334,1.4163,1.4163,0,0,0-1.47461,1.54687c0,2.22363,7.27539,2.15137,7.27539,7.71a5.62852,5.62852,0,0,1-10.876,1.83789l2.22364-1.62011h.24121c.67676,1.5957,1.62012,2.27246,2.85254,2.27246a2.32916,2.32916,0,0,0,2.417-2.49024c0-3.18945-7.27539-2.99609-7.27539-7.71a4.48477,4.48477,0,0,1,4.61621-4.49512,5.13612,5.13612,0,0,1,4.44727,2.58594l-2.15039,1.59571Z" style="fill:red"/><path d="M576.35059,29.39063l.12011.12109v2.58594l-.12011.12109H571.0332V34.249h3.86719l.12109.12012v2.36914l-.12109.1211H571.0332v2.27148h6.042l.12109.12109v2.58594l-.12109.12109h-8.749l-.12109-.12109V29.51172l.12109-.12109Z" style="fill:red"/><path d="M583.624,29.39063c2.99707,0,5.22071,1.57128,5.22071,4.20507a3.848,3.848,0,0,1-2.15137,3.50489l3.50488,4.7373-.12109.12109h-3.21387l-.12109-.12109-3.21485-4.03613H582.585v4.03613l-.12109.12109h-2.58594l-.12109-.12109V29.51172l.12109-.12109ZM582.585,35.19141h1.08692c1.30566,0,1.98242-.43555,1.98242-1.498,0-1.04-.67676-1.47461-1.98242-1.47461H582.585Z" style="fill:red"/><path d="M593,29.39063l.12109.12109,3.26368,8.19336,3.28711-8.19336.12011-.12109h2.85254l.1211.12109-5.07618,12.32617-.12109.12109H595.2002l-.1211-.12109-5.07519-12.32617.12011-.12109Z" style="fill:red"/><path d="M607.30664,29.39063l.12109.12109V41.83789l-.12109.12109H604.7207l-.12109-.12109V29.51172l.12109-.12109Z" style="fill:red"/><path d="M621.10645,33.57227a6.58829,6.58829,0,0,0-4.374-1.59571,3.70026,3.70026,0,0,0,0,7.39649,6.58829,6.58829,0,0,0,4.374-1.59571l.12109.1211V41.0166a7.96339,7.96339,0,0,1-4.49512,1.30469,6.64757,6.64757,0,1,1,0-13.293,7.96339,7.96339,0,0,1,4.49512,1.30469v3.11816Z" style="fill:red"/><path d="M632.27148,29.39063l.1211.12109v2.58594l-.1211.12109H626.9541V34.249h3.86719l.12109.12012v2.36914l-.12109.1211H626.9541v2.27148h6.043l.12012.12109v2.58594l-.12012.12109h-8.75l-.12012-.12109V29.51172l.12012-.12109Z" style="fill:red"/></g><g style="isolation:isolate"><path d="M374.82715,54.04l.12012.12109v2.58594l-.12012.12109H369.582V70.83789l-.12109.12109h-2.56153l-.12109-.12109V56.86816H361.5332l-.12109-.12109V54.16113l.12109-.12109Z" style="fill:red"/><path d="M387.27344,64.6748a6.76868,6.76868,0,1,1-6.76758-6.64648A6.65471,6.65471,0,0,1,387.27344,64.6748Zm-10.34571,0a3.57913,3.57913,0,1,0,3.57813-3.69824A3.62793,3.62793,0,0,0,376.92773,64.6748Z" style="fill:red"/><path d="M403.15039,54.04l.12012.12109,6.59863,16.67676-.12109.12109h-2.97266l-.12109-.12109-1.40137-3.67383h-6.88867l-1.42578,3.67383-.1211.12109h-2.97265l-.1211-.12109,6.62207-16.67676.1211-.12109Zm-3.77148,10.32031h4.85839L401.79688,57.835Z" style="fill:red"/><path d="M414.41016,58.39063l.12109.12109v9.61914h5.31738l.1211.12109v2.58594l-.1211.12109h-8.02441l-.12109-.12109V58.51172l.12109-.12109Z" style="fill:red"/><path d="M424.99512,58.39063l.12109.12109v9.61914h5.31738l.1211.12109v2.58594l-.1211.12109h-8.02441l-.12109-.12109V58.51172l.12109-.12109Z" style="fill:red"/><path d="M456.00293,62.5a8.94369,8.94369,0,1,1-8.94238-8.82227A8.86619,8.86619,0,0,1,456.00293,62.5Zm-14.69531,0a5.7537,5.7537,0,1,0,5.75293-5.874A5.77745,5.77745,0,0,0,441.30762,62.5Z" style="fill:red"/><path d="M461.41406,58.39063l.1211.12109v5.67969c0,3.02148,1.11132,4.18164,3.21484,4.18164,2.07813,0,3.21387-1.16016,3.21387-4.18164V58.51172l.12109-.12109h2.58594l.12109.12109V64.6748c0,4.375-2.32031,6.64649-6.042,6.64649-3.72266,0-6.043-2.27149-6.043-6.64649V58.51172l.1211-.12109Z" style="fill:red"/><path d="M477.84766,58.39063c2.99609,0,5.2207,1.57128,5.2207,4.20507a3.84969,3.84969,0,0,1-2.15137,3.50489l3.50489,4.7373-.1211.12109h-3.21484l-.1211-.12109L477.75,66.80176h-.94238v4.03613l-.12012.12109h-2.58691l-.12012-.12109V58.51172l.12012-.12109Zm-1.04,5.80078h1.08789c1.30566,0,1.98144-.43555,1.98144-1.49805,0-1.04-.67578-1.47461-1.98144-1.47461h-1.08789Z" style="fill:red"/><path d="M506.12305,58.70508a8.68743,8.68743,0,0,0-5.67969-2.0791,5.87482,5.87482,0,0,0,0,11.74707,8.69259,8.69259,0,0,0,5.67969-2.0791l.12109.12109v3.19043a9.64543,9.64543,0,0,1-5.80078,1.71582,8.82261,8.82261,0,1,1,0-17.64356,9.64543,9.64543,0,0,1,5.80078,1.71582V58.584Z" style="fill:red"/><path d="M511.99414,58.39063l.12109.12109v5.67969c0,3.02148,1.11133,4.18164,3.21485,4.18164,2.07812,0,3.21387-1.16016,3.21387-4.18164V58.51172l.12109-.12109H521.251l.12109.12109V64.6748c0,4.375-2.32031,6.64649-6.042,6.64649-3.72266,0-6.043-2.27149-6.043-6.64649V58.51172l.12109-.12109Z" style="fill:red"/><path d="M530.5791,62.13672A2.56133,2.56133,0,0,0,528.5,60.97656a.93822.93822,0,0,0-.99023.99121c0,1.25684,5.3164,1.28125,5.3164,5.3418,0,2.15137-1.667,4.01172-4.56738,4.01172a5.15386,5.15386,0,0,1-4.80957-3.04492l2.127-1.57129h.24121c.84571,1.35351,1.61914,1.668,2.44141,1.668a1.22454,1.22454,0,0,0,1.40137-1.25684c0-1.5957-5.3418-1.64355-5.3418-5.3418,0-2.248,1.81348-3.74609,4.18164-3.74609a4.98616,4.98616,0,0,1,4.32617,2.53809l-2.00586,1.57031Z" style="fill:red"/><path d="M545.03125,58.39063l.12109.12109v2.58594l-.12109.12109h-4.03711v9.61914l-.12012.12109h-2.5625l-.12011-.12109V61.21875H534.1543l-.1211-.12109V58.51172l.1211-.12109Z" style="fill:red"/><path d="M559.41016,64.6748a6.76868,6.76868,0,1,1-6.76758-6.64648A6.6541,6.6541,0,0,1,559.41016,64.6748Zm-10.34375,0a3.57913,3.57913,0,1,0,3.57617-3.69824A3.62692,3.62692,0,0,0,549.06641,64.6748Z" style="fill:red"/><path d="M564.55664,58.39063l.24219.12109,3.93945,4.80957,3.93945-4.80957.24219-.12109h2.46485l.12109.12109V70.83789l-.12109.12109h-2.58594l-.1211-.12109v-8l-3.81835,4.5918h-.24219l-3.81836-4.5918v8l-.1211.12109H562.0918l-.1211-.12109V58.51172l.1211-.12109Z" style="fill:red"/><path d="M586.83887,58.39063l.12109.12109v2.58594l-.12109.12109h-5.31739V63.249h3.86719l.1211.12012v2.36914l-.1211.1211h-3.86719v2.27148h6.043l.1211.12109v2.58594l-.1211.12109h-8.75l-.12109-.12109V58.51172l.12109-.12109Z" style="fill:red"/><path d="M594.11328,58.39063c2.9961,0,5.2207,1.57128,5.2207,4.20507a3.8497,3.8497,0,0,1-2.15136,3.50489l3.50488,4.7373-.12109.12109h-3.21485l-.12109-.12109-3.21484-4.03613h-.94239v4.03613l-.12011.12109h-2.58692l-.12012-.12109V58.51172l.12012-.12109Zm-1.04,5.80078h1.08789c1.30567,0,1.98145-.43555,1.98145-1.49805,0-1.04-.67578-1.47461-1.98145-1.47461h-1.08789Z" style="fill:red"/><path d="M608.54,62.13672a2.55977,2.55977,0,0,0-2.07813-1.16016.939.939,0,0,0-.99121.99121c0,1.25684,5.31739,1.28125,5.31739,5.3418,0,2.15137-1.668,4.01172-4.56836,4.01172a5.15572,5.15572,0,0,1-4.80957-3.04492l2.12695-1.57129h.24219c.8457,1.35351,1.61914,1.668,2.44043,1.668a1.22535,1.22535,0,0,0,1.40234-1.25684c0-1.5957-5.3418-1.64355-5.3418-5.3418,0-2.248,1.8125-3.74609,4.18164-3.74609a4.98861,4.98861,0,0,1,4.32618,2.53809l-2.00586,1.57031Z" style="fill:red"/></g><rect width="649.20001" height="94.7" style="fill:none"/></svg>